<svg xmlns="http://www.w3.org/2000/svg" xmlns:xlink="http://www.w3.org/1999/xlink" width="114.28" height="128.354" viewBox="0 0 114.28 128.354"><defs><linearGradient id="a" x1="1" y1="1" x2="-0.331" y2="-0.3" gradientUnits="objectBoundingBox"><stop offset="0" stop-color="#35d1e4"/><stop offset="1" stop-color="#01245a"/></linearGradient></defs><path d="M77.883-5721.646h0v-6.138h30.943V-5843.86H77.883V-5850h36.4v.927h0v126.438h0v.988Zm-77.883,0V-5850H15.233v0H36.4v6.137H5.454v116.075h9.779v0H36.4v6.137Zm71.646-18.923a14.736,14.736,0,0,1-6.18-1.242,11.807,11.807,0,0,1-4.4-3.312,14.974,14.974,0,0,1-2.519-4.613,16.561,16.561,0,0,1-.858-5.328,17.771,17.771,0,0,1,.885-5.62,15.924,15.924,0,0,1,2.582-4.833,12.019,12.019,0,0,1,4.493-3.457,14.831,14.831,0,0,1,6.318-1.282,9.236,9.236,0,0,1,7.9,3.728v-3.006H86.58v28.333H79.7v-3.867a9.371,9.371,0,0,1-8.051,4.5Zm-5.121-21.621a10.422,10.422,0,0,0-2.031,6.766,10.557,10.557,0,0,0,2.031,6.793,7.211,7.211,0,0,0,5.978,2.54q3.976,0,5.785-2.527a11.359,11.359,0,0,0,1.808-6.75,10.954,10.954,0,0,0-1.921-6.836,6.873,6.873,0,0,0-5.812-2.5A7.072,7.072,0,0,0,66.525-5762.19ZM47.235-5741.2l-11.514-12.261v12.261H28.873v-40.233h6.848v23.472l10.243-11.571h9.447l-13.506,13.7L56.294-5741.2Zm23.192-47.68q-5.133,0-8.007-2.94t-2.872-8.078v-17.948h6.793v17.834A5.566,5.566,0,0,0,67.8-5795.8a5.6,5.6,0,0,0,4.032,1.393,6.056,6.056,0,0,0,4.542-1.53q1.479-1.535,1.478-4.929v-16.98H84.7v20.711l.332,7.62H77.965l-.109-4.2a4.209,4.209,0,0,1-.621,1.34,10.145,10.145,0,0,1-1.325,1.563,6.6,6.6,0,0,1-2.293,1.373,8.9,8.9,0,0,1-3.1.556Zm-41.614-.636v-40.206h7.015v34.188h18.61v6.019Z" transform="translate(0 5850)" fill="url(#a)"/></svg>