<svg xmlns="http://www.w3.org/2000/svg" width="1919" height="1079.001" viewBox="0 0 1919 1079.001">
  <path id="Subtraction_7" data-name="Subtraction 7" d="M2077.985,1810.09h0l-109.446,0,28.535-47.491a34.817,34.817,0,1,0,11.625-67.645,35.111,35.111,0,0,0-15.406,3.58,34.82,34.82,0,0,0-8.156,56.892l-32.845,54.664H1708.583l54.1-90.033,95.5,57.382L1922.733,1670l-263.219-158.157a34.845,34.845,0,1,0-7.172,11.937l251.281,150.985-50.209,83.561-95.5-57.381-65.58,109.143h-113.73l74.589-124.136a34.817,34.817,0,1,0,11.624-67.646,35.111,35.111,0,0,0-15.405,3.58,34.821,34.821,0,0,0-8.156,56.893l-78.9,131.309H1448.63L1557.7,1628.57a34.817,34.817,0,1,0,11.624-67.645,35.108,35.108,0,0,0-15.405,3.58,34.82,34.82,0,0,0-8.156,56.893l-113.377,188.691H1318.653l303.1-504.445,223.682-55.77,627.908,377.285v182.931H2472.2l.048-.08-.318.08H2155.877l-18.869-11.337a34.814,34.814,0,1,0-59.025,11.337Zm-368.261-381.808,514.5,309.142a34.855,34.855,0,1,0,7.173-11.937l-514.5-309.143a34.852,34.852,0,1,0-7.174,11.938Zm152.88-38.116,514.5,309.142a34.843,34.843,0,1,0,7.172-11.937l-514.5-309.142a34.848,34.848,0,1,0-7.174,11.938h0Zm-843.859,419.924H909.465a34.738,34.738,0,0,0-18.1,0H798.745l157.012-261.312-96.722-387.934-116.389-69.934a34.853,34.853,0,1,0-7.173,11.938l111.615,67.065,93.864,376.467L782.5,1810.088H668.768l162.835-271-77.64-311.4-164.2-98.66a34.826,34.826,0,0,0-32.8-46.422c-.869,0-1.749.033-2.616.1V918.93l26.349-43.853,458.641-114.352,17.808-29.637h113.73l-73.726,122.7L638.506,968.141l-12.587,20.95a34.817,34.817,0,1,0-11.623,67.645,35.106,35.106,0,0,0,15.4-3.58,34.82,34.82,0,0,0,8.155-56.893l9.648-16.055,458.64-114.352,80.977-134.768h113.729L1108.689,1050.9l-60.284-36.222a34.848,34.848,0,1,0-7.173,11.938l72.221,43.394L1317.1,731.088h97.573l119.307,71.687,43.074-71.687H1690.78L1567.329,936.544l-155.782-93.6a34.85,34.85,0,1,0-7.173,11.938l167.719,100.777,134.934-224.567h113.73L1734.2,875.15a34.817,34.817,0,1,0-11.625,67.645,35.114,35.114,0,0,0,15.405-3.58,34.82,34.82,0,0,0,8.156-56.893L1837,731.088h113.73l-27.436,45.66L2030.734,841.3l66.224-110.215h113.73l-146.6,243.984-155.782-93.6a34.852,34.852,0,1,0-7.173,11.937l167.719,100.776,158.083-263.095h53.006l193.4,116.208v84.119a34.82,34.82,0,0,0-29.158,60.019l-215.539,358.718,244.7,147.029v113.73l-625.63-375.917-234.958,58.582-310.353,516.512h-113.73l27.039-45-95.5-57.381,265.747-442.278a34.817,34.817,0,1,0,11.624-67.646,35.1,35.1,0,0,0-15.405,3.58,34.821,34.821,0,0,0-8.156,56.893L1101.1,1712.471l95.5,57.382-24.175,40.235H1087.8a34.83,34.83,0,0,0-48.334-36.472,34.551,34.551,0,0,0-11.849,8.43l-60.284-36.221,172.144-286.5-72.22-43.395a34.846,34.846,0,1,0-7.172,11.937l60.283,36.222-172.144,286.5,72.22,43.395a34.686,34.686,0,0,0-1.7,16.1Zm244.8-172.946a34.829,34.829,0,1,0,23.533,9.169l271.45-451.77L1849.1,1122.1l295.986,177.846,215.539-358.717a34.817,34.817,0,1,0,11.624-67.646,35.106,35.106,0,0,0-15.405,3.58,34.82,34.82,0,0,0-8.156,56.893l-208.366,346.78-288.943-173.614-301.842,75.258-274.391,456.663A34.728,34.728,0,0,0,1263.549,1637.144Zm-241.58-362.152,167.72,100.776,172.144-286.5,60.284,36.222a34.851,34.851,0,1,0,7.173-11.938l-72.221-43.395-172.144,286.5-155.782-93.6a34.849,34.849,0,1,0-7.174,11.938h0ZM888.353,1064.729l263.217,158.158,158.158-263.219a34.817,34.817,0,1,0,11.624-67.645,35.1,35.1,0,0,0-15.405,3.58,34.821,34.821,0,0,0-8.156,56.893l-150.985,251.281L895.525,1052.792a34.847,34.847,0,1,0-7.173,11.937h0ZM1867.208,1003l239.762,144.064,158.157-263.218a34.817,34.817,0,1,0,11.625-67.646,35.111,35.111,0,0,0-15.406,3.58,34.821,34.821,0,0,0-8.156,56.893L2102.2,1127.953,1869.426,988.086l-305.76,76.235-114-68.5a34.841,34.841,0,1,0-7.172,11.938l118.955,71.476Zm-793.523,807.089h-40.8a20.9,20.9,0,0,1,10.266-22.771,20.883,20.883,0,0,1,20.892.364,20.734,20.734,0,0,1,8.49,9.786,20.938,20.938,0,0,1,1.157,12.62Zm-421.163,0H641.653l-87.308-52.46V1643.9l61.94,37.218,91.129-151.663-58.581-234.959-94.487-56.773v-85.574c.851.063,1.718.1,2.579.1a34.767,34.767,0,0,0,25.669-11.278l159.3,95.719,74.83,300.122Zm-37.908,0H554.345v-36.212l60.264,36.21Zm1489.545-2.05h0a20.875,20.875,0,1,1,10.152-2.621A20.865,20.865,0,0,1,2104.157,1808.038Zm152.878-38.117h0a20.878,20.878,0,1,1,10.153-2.621A20.859,20.859,0,0,1,2257.036,1769.922Zm-248.377-19.264h0a20.878,20.878,0,1,1,10.153-2.621A20.863,20.863,0,0,1,2008.658,1750.657Zm401.258-18.853h0a20.877,20.877,0,1,1,10.153-2.621A20.86,20.86,0,0,1,2409.917,1731.8Zm-1146.4-38.94h0a20.876,20.876,0,1,1,10.153-2.621A20.862,20.862,0,0,1,1263.521,1692.865Zm401.258-18.853h0a20.879,20.879,0,1,1,10.153-2.622A20.862,20.862,0,0,1,1664.78,1674.012ZM611.52,1662.007h0l-57.175-34.353V1546.12a34.944,34.944,0,0,0,6.593,4.052,34.515,34.515,0,0,0,14.821,3.327,34.819,34.819,0,1,0-11.215-67.779,34.577,34.577,0,0,0-10.2,5.517v-94.878a34.832,34.832,0,0,0,0-61.124v-81.266l82.42,49.523,55.77,223.683L611.52,1662.006Zm957.763-45.376h0a20.877,20.877,0,1,1,10.153-2.621A20.863,20.863,0,0,1,1569.282,1616.63Zm-993.516-77.056h0a20.88,20.88,0,1,1,10.153-2.622A20.864,20.864,0,0,1,575.766,1539.574Zm1050.9-18.442h0a20.88,20.88,0,1,1,10.153-2.622A20.864,20.864,0,0,1,1626.663,1521.132Zm846.682-40.2v0h0l-225.586-135.545,208.365-346.78a34.664,34.664,0,0,0,17.221,1.536v106a34.884,34.884,0,0,0,0,25.02v28.056l-91.817,152.809,91.817,55.17v113.731Zm-789.3-55.3h0a20.877,20.877,0,1,1,10.153-2.621A20.861,20.861,0,0,1,1684.044,1425.633Zm-649.637-.411h0a20.879,20.879,0,1,1,10.153-2.621A20.864,20.864,0,0,1,1034.407,1425.222Zm802.518-37.706h0a20.877,20.877,0,1,1,10.153-2.621A20.863,20.863,0,0,1,1836.925,1387.516Zm-1282.58-9.131v-25.173a20.9,20.9,0,0,1,1.229,23.349,21.209,21.209,0,0,1-1.228,1.822Zm1919-27.426h0l-72.707-43.687,72.707-121.005v164.694ZM996.288,1272.342a20.877,20.877,0,1,1,10.153-2.621A20.863,20.863,0,0,1,996.288,1272.342Zm401.26-18.853h0a20.879,20.879,0,1,1,10.153-2.621A20.858,20.858,0,0,1,1397.548,1253.489Zm57.382-95.5h0a20.876,20.876,0,1,1,10.153-2.621A20.865,20.865,0,0,1,1454.929,1157.99Zm-898.017-19.675h0a20.962,20.962,0,0,1-2.568-.159v-41.465a21.076,21.076,0,0,1,2.607-.163,20.893,20.893,0,1,1-.039,41.786Zm152.88-38.118h0a20.876,20.876,0,1,1,10.153-2.621A20.862,20.862,0,0,1,709.793,1100.2Zm152.88-38.117h0a20.876,20.876,0,1,1,10.153-2.621A20.863,20.863,0,0,1,862.673,1062.081ZM614.3,1042.816h0a20.876,20.876,0,1,1,10.153-2.621A20.867,20.867,0,0,1,614.294,1042.816Zm401.259-18.853h0a20.878,20.878,0,1,1,10.152-2.621A20.863,20.863,0,0,1,1015.554,1023.963Zm401.26-18.853h0a20.876,20.876,0,1,1,10.153-2.621A20.864,20.864,0,0,1,1416.813,1005.11Zm1050.9-18.442h0a20.893,20.893,0,1,1,5.635-41.019V985.9A20.97,20.97,0,0,1,2467.711,986.668Zm-1146.4-38.939h0a20.877,20.877,0,1,1,10.153-2.621A20.863,20.863,0,0,1,1321.314,947.729Zm1050.9-18.442h0a20.877,20.877,0,1,1,10.153-2.622A20.861,20.861,0,0,1,2372.21,929.287Zm-649.637-.411h0a20.878,20.878,0,1,1,10.153-2.622A20.867,20.867,0,0,1,1722.573,928.875ZM554.345,891.89v-160.8h96.62l-3.308,5.505,22.081-5.505H1040.9l-10.557,17.57L571.7,863.01l-17.351,28.877Zm1321.106-1.131a20.878,20.878,0,1,1,10.153-2.621A20.859,20.859,0,0,1,1875.451,890.758ZM2276.713,871.9h0a20.879,20.879,0,1,1,10.153-2.622A20.863,20.863,0,0,1,2276.712,871.9ZM1378.7,852.23h0a20.875,20.875,0,1,1,10.153-2.621A20.861,20.861,0,0,1,1378.695,852.23Zm1094.65-21.18h0l-166.362-99.961h166.362V831.05Zm-447.375-8.856h0l-83.562-50.209,24.573-40.9h113.73l-54.741,91.1Zm-496.758-38.528h0l-87.5-52.577H1560.8l-31.591,52.577Z" transform="translate(-554.345 -731.088)" fill="rgba(8,18,35,0.98)" opacity="0.3"/>
</svg>
