<svg id="Layer_1" data-name="Layer 1" xmlns="http://www.w3.org/2000/svg" xmlns:xlink="http://www.w3.org/1999/xlink" viewBox="0 0 841.89 841.89"><defs><style>.cls-1{fill:none;}.cls-2{fill:#444;}.cls-2,.cls-3,.cls-4,.cls-5,.cls-6,.cls-7,.cls-8,.cls-9{opacity:0.14;}.cls-4{fill:#aaa;}.cls-5{fill:#ddd;}.cls-6{fill:#999;}.cls-7{fill:#fff;}.cls-8{fill:#666;}.cls-9{fill:#222;}.cls-10{fill:url(#linear-gradient);}.cls-11{fill:url(#b);}</style><linearGradient id="linear-gradient" x1="1155.02" y1="841.89" x2="1155.02" gradientTransform="matrix(-0.97, -0.26, -0.26, 0.97, 1692.8, 136.97)" gradientUnits="userSpaceOnUse"><stop offset="0" stop-color="#185985"/><stop offset="1" stop-color="#4fe"/></linearGradient><pattern id="b" data-name="b" width="1080" height="900.11" patternTransform="matrix(0.3, 0, 0, -0.3, 0, 841.87)" patternUnits="userSpaceOnUse" viewBox="0 0 1080 900.11"><rect class="cls-1" width="1080" height="900.11"/><polygon class="cls-2" points="90 750.05 0 600.05 180 600.05 90 750.05"/><polygon class="cls-3" points="90 750.05 180 900.05 0 900.05 90 750.05"/><polygon class="cls-4" points="270 750.05 360 900.05 180 900.05 270 750.05"/><polygon class="cls-5" points="450 750.05 360 600.05 540 600.05 450 750.05"/><polygon class="cls-6" points="450 750.05 540 900.05 360 900.05 450 750.05"/><polygon class="cls-3" points="630 750.05 540 600.05 720 600.05 630 750.05"/><polygon class="cls-5" points="630 750.05 720 900.05 540 900.05 630 750.05"/><polygon class="cls-2" points="810 750.05 720 600.05 900 600.05 810 750.05"/><polygon class="cls-7" points="810 750.05 900 900.05 720 900.05 810 750.05"/><polygon class="cls-5" points="990 750.05 900 600.05 1080 600.05 990 750.05"/><polygon class="cls-2" points="990 750.05 1080 900.05 900 900.05 990 750.05"/><polygon class="cls-5" points="90 450.06 0 300.06 180 300.06 90 450.06"/><polygon class="cls-3" points="90 450.06 180 600.05 0 600.05 90 450.06"/><polygon class="cls-8" points="270 450.06 180 300.06 360 300.06 270 450.06"/><polygon class="cls-4" points="270 450.06 360 600.05 180 600.05 270 450.06"/><polygon class="cls-5" points="450 450.06 360 300.06 540 300.06 450 450.06"/><polygon class="cls-6" points="450 450.06 540 600.05 360 600.05 450 450.06"/><polygon class="cls-6" points="630 450.06 540 300.06 720 300.06 630 450.06"/><polygon class="cls-7" points="630 450.06 720 600.05 540 600.05 630 450.06"/><polygon class="cls-3" points="810 450.06 720 300.06 900 300.06 810 450.06"/><polygon class="cls-5" points="810 450.06 900 600.05 720 600.05 810 450.06"/><polygon class="cls-4" points="990 450.06 900 300.06 1080 300.06 990 450.06"/><polygon class="cls-2" points="990 450.06 1080 600.05 900 600.05 990 450.06"/><polygon class="cls-9" points="90 150.06 0 0.06 180 0.06 90 150.06"/><polygon class="cls-3" points="270 150.06 180 0.06 360 0.06 270 150.06"/><polygon class="cls-5" points="270 150.06 360 300.06 180 300.06 270 150.06"/><polygon class="cls-3" points="450 150.06 540 300.06 360 300.06 450 150.06"/><polygon class="cls-3" points="630 150.06 540 0.06 720 0.06 630 150.06"/><polygon class="cls-2" points="630 150.06 720 300.06 540 300.06 630 150.06"/><polygon class="cls-4" points="810 150.06 720 0.06 900 0.06 810 150.06"/><polygon class="cls-8" points="810 150.06 900 300.06 720 300.06 810 150.06"/><polygon class="cls-6" points="990 150.06 900 0.06 1080 0.06 990 150.06"/><polygon class="cls-6" points="180 900.05 90 750.05 270 750.05 180 900.05"/><polygon class="cls-2" points="360 900.05 270 750.05 450 750.05 360 900.05"/><polygon class="cls-7" points="540 900.05 450 750.05 630 750.05 540 900.05"/><polygon class="cls-3" points="900 900.05 810 750.05 990 750.05 900 900.05"/><polygon class="cls-9" points="0 600.05 -90 450.06 90 450.06 0 600.05"/><polygon class="cls-7" points="0 600.05 90 750.05 -90 750.05 0 600.05"/><polygon class="cls-7" points="180 600.05 90 450.06 270 450.06 180 600.05"/><polygon class="cls-8" points="180 600.05 270 750.05 90 750.05 180 600.05"/><polygon class="cls-9" points="360 600.05 270 450.06 450 450.06 360 600.05"/><polygon class="cls-7" points="360 600.05 450 750.05 270 750.05 360 600.05"/><polygon class="cls-2" points="540 600.05 450 450.06 630 450.06 540 600.05"/><polygon class="cls-9" points="540 600.05 630 750.05 450 750.05 540 600.05"/><polygon class="cls-4" points="720 600.05 630 450.06 810 450.06 720 600.05"/><polygon class="cls-8" points="720 600.05 810 750.05 630 750.05 720 600.05"/><polygon class="cls-7" points="900 600.05 810 450.06 990 450.06 900 600.05"/><polygon class="cls-6" points="900 600.05 990 750.05 810 750.05 900 600.05"/><polygon class="cls-3" points="0 300.06 -90 150.06 90 150.06 0 300.06"/><polygon class="cls-8" points="0 300.06 90 450.06 -90 450.06 0 300.06"/><polygon class="cls-4" points="180 300.06 90 150.06 270 150.06 180 300.06"/><polygon class="cls-2" points="180 300.06 270 450.06 90 450.06 180 300.06"/><polygon class="cls-2" points="360 300.06 270 150.06 450 150.06 360 300.06"/><polygon class="cls-6" points="360 300.06 450 450.06 270 450.06 360 300.06"/><polygon class="cls-8" points="540 300.06 630 450.06 450 450.06 540 300.06"/><polygon class="cls-9" points="720 300.06 630 150.06 810 150.06 720 300.06"/><polygon class="cls-7" points="900 300.06 810 150.06 990 150.06 900 300.06"/><polygon class="cls-9" points="900 300.06 990 450.06 810 450.06 900 300.06"/><polygon class="cls-5" points="0 0.06 90 150.06 -90 150.06 0 0.06"/><polygon class="cls-2" points="180 0.06 270 150.06 90 150.06 180 0.06"/><polygon class="cls-7" points="360 0.06 450 150.06 270 150.06 360 0.06"/><polygon class="cls-4" points="540 0.06 630 150.06 450 150.06 540 0.06"/><polygon class="cls-7" points="720 0.06 810 150.06 630 150.06 720 0.06"/><polygon class="cls-9" points="900 0.06 990 150.06 810 150.06 900 0.06"/><polygon class="cls-9" points="1080 600.05 990 450.06 1170 450.06 1080 600.05"/><polygon class="cls-7" points="1080 600.05 1170 750.05 990 750.05 1080 600.05"/><polygon class="cls-3" points="1080 300.06 990 150.06 1170 150.06 1080 300.06"/><polygon class="cls-8" points="1080 300.06 1170 450.06 990 450.06 1080 300.06"/><polygon class="cls-5" points="1080 0.06 1170 150.06 990 150.06 1080 0.06"/></pattern></defs><title>subtle-prism</title><rect class="cls-10" width="841.89" height="841.89"/><rect class="cls-11" width="841.89" height="841.89"/></svg>