<svg xmlns="http://www.w3.org/2000/svg" width="1920" height="1137.377" viewBox="0 0 1920 1137.377"><path d="M1523.64,1136.215h0l-109.446,0,28.535-50.01a33.145,33.145,0,0,0,11.6,2.1,33.551,33.551,0,0,0,18.469-5.584,36.006,36.006,0,0,0,13.03-15.456,38.384,38.384,0,0,0,1.821-26.277,36.376,36.376,0,0,0-15.384-20.777,33.286,33.286,0,0,0-33.313-1.469,34.534,34.534,0,0,0-6.779,4.611,36.038,36.038,0,0,0-5.729,6.339,38.014,38.014,0,0,0-6.774,25.362,37.342,37.342,0,0,0,11.127,23.6l-32.845,57.563H1154.238l54.1-94.807,95.5,60.425L1368.388,988.7,1105.169,822.154a38.4,38.4,0,0,0-.7-26.336,35.849,35.849,0,0,0-17.289-19.044,33.072,33.072,0,0,0-14.821-3.5,33.621,33.621,0,0,0-16.956,4.631,35.716,35.716,0,0,0-12.908,13.154,38.249,38.249,0,0,0-4.319,25.951,36.883,36.883,0,0,0,13.323,22.3,34.158,34.158,0,0,0,10.019,5.484,33.26,33.26,0,0,0,24.626-1.19A34.632,34.632,0,0,0,1098,834.724l251.281,158.99-50.209,87.992-95.5-60.424-65.58,114.93h-113.73l74.589-130.719a33.147,33.147,0,0,0,11.6,2.1,33.547,33.547,0,0,0,18.469-5.585,36.007,36.007,0,0,0,13.03-15.457,38.384,38.384,0,0,0,1.821-26.277,36.374,36.374,0,0,0-15.384-20.777,33.289,33.289,0,0,0-33.314-1.47,34.576,34.576,0,0,0-6.779,4.611,36.082,36.082,0,0,0-5.729,6.339,38.014,38.014,0,0,0-6.774,25.362,37.343,37.343,0,0,0,11.127,23.6l-78.9,138.272H894.284L1003.351,945.07a33.144,33.144,0,0,0,11.6,2.1,33.545,33.545,0,0,0,18.469-5.584,36.006,36.006,0,0,0,13.031-15.456,38.383,38.383,0,0,0,1.821-26.277,36.374,36.374,0,0,0-15.384-20.778,33.288,33.288,0,0,0-33.314-1.469,34.554,34.554,0,0,0-6.779,4.611,36.036,36.036,0,0,0-5.729,6.339,38.014,38.014,0,0,0-6.775,25.363,37.342,37.342,0,0,0,11.127,23.6l-113.377,198.7H764.308l303.1-531.193,223.682-58.727L1919,943.582v192.631h-1.146l.048-.084-.318.084H1601.532l-18.869-11.938a38.41,38.41,0,0,0-.7-26.337,35.851,35.851,0,0,0-17.289-19.045,33.08,33.08,0,0,0-14.821-3.5,33.62,33.62,0,0,0-16.956,4.631,35.711,35.711,0,0,0-12.908,13.153,37.75,37.75,0,0,0-4.151,10.932,38.557,38.557,0,0,0,1.983,22.375,36.782,36.782,0,0,0,5.813,9.731ZM1155.379,734.162l514.5,325.534a38.407,38.407,0,0,0,.7,26.337,35.848,35.848,0,0,0,17.288,19.044,33.072,33.072,0,0,0,14.821,3.5,33.622,33.622,0,0,0,16.956-4.631,35.718,35.718,0,0,0,12.908-13.154,38.249,38.249,0,0,0,4.319-25.951,36.88,36.88,0,0,0-13.323-22.3,34.166,34.166,0,0,0-10.019-5.484,33.257,33.257,0,0,0-24.626,1.19,34.635,34.635,0,0,0-11.848,8.877l-514.5-325.535a38.4,38.4,0,0,0-.7-26.336,35.846,35.846,0,0,0-17.289-19.045,33.076,33.076,0,0,0-14.82-3.5,33.618,33.618,0,0,0-16.956,4.631,35.714,35.714,0,0,0-12.908,13.154,38.249,38.249,0,0,0-4.319,25.951,36.88,36.88,0,0,0,13.323,22.3,34.161,34.161,0,0,0,10.019,5.485,33.264,33.264,0,0,0,24.627-1.19,34.642,34.642,0,0,0,11.848-8.876Zm152.88-40.138,514.5,325.534a38.4,38.4,0,0,0,.7,26.336,35.845,35.845,0,0,0,17.289,19.045,33.076,33.076,0,0,0,14.821,3.5,33.619,33.619,0,0,0,16.956-4.632,35.711,35.711,0,0,0,12.907-13.153,38.25,38.25,0,0,0,4.32-25.951,36.877,36.877,0,0,0-13.323-22.3,34.159,34.159,0,0,0-10.019-5.485,33.264,33.264,0,0,0-24.627,1.19,34.64,34.64,0,0,0-11.849,8.877l-514.5-325.534a38.407,38.407,0,0,0-.7-26.337,35.846,35.846,0,0,0-17.289-19.044,33.071,33.071,0,0,0-14.822-3.5,33.619,33.619,0,0,0-16.956,4.631,35.721,35.721,0,0,0-12.908,13.155,38.252,38.252,0,0,0-4.319,25.951,36.884,36.884,0,0,0,13.322,22.3,34.161,34.161,0,0,0,10.019,5.484,33.263,33.263,0,0,0,24.627-1.19,34.641,34.641,0,0,0,11.848-8.876h0ZM464.4,1136.214H355.12a33.048,33.048,0,0,0-18.1,0H244.4L401.412,861.045l-96.722-408.5L188.3,378.9a38.4,38.4,0,0,0-.7-26.336,35.849,35.849,0,0,0-17.289-19.044,33.072,33.072,0,0,0-14.822-3.5,33.622,33.622,0,0,0-16.956,4.631A35.716,35.716,0,0,0,125.63,347.8a38.251,38.251,0,0,0-4.32,25.95,36.886,36.886,0,0,0,13.322,22.3,34.164,34.164,0,0,0,10.019,5.484,33.264,33.264,0,0,0,24.627-1.19,34.635,34.635,0,0,0,11.849-8.878l111.615,70.621L386.606,858.52,228.153,1136.213H114.423L277.259,850.84l-77.64-327.91L35.42,419.039a38.407,38.407,0,0,0-.7-26.336,35.848,35.848,0,0,0-17.289-19.044,33.073,33.073,0,0,0-14.819-3.5c-.869,0-1.749.035-2.616.1V197.8l26.349-46.178L484.99,31.208,502.8,0h113.73L542.8,129.207,84.161,249.622,71.573,271.683a33.148,33.148,0,0,0-11.6-2.1,33.548,33.548,0,0,0-18.469,5.584,36.007,36.007,0,0,0-13.03,15.456A38.383,38.383,0,0,0,26.657,316.9a36.376,36.376,0,0,0,15.384,20.778,33.289,33.289,0,0,0,33.314,1.469,34.561,34.561,0,0,0,6.779-4.611,36.048,36.048,0,0,0,5.729-6.339,38.014,38.014,0,0,0,6.775-25.363,37.34,37.34,0,0,0-11.127-23.6l9.648-16.906L551.8,141.914,632.775,0H746.5L554.344,336.766,494.06,298.623a38.4,38.4,0,0,0-.7-26.336,35.846,35.846,0,0,0-17.289-19.044,33.071,33.071,0,0,0-14.821-3.5,33.621,33.621,0,0,0-16.956,4.631,35.711,35.711,0,0,0-12.907,13.154,38.246,38.246,0,0,0-4.32,25.951,36.878,36.878,0,0,0,13.323,22.3,34.16,34.16,0,0,0,10.019,5.484,33.261,33.261,0,0,0,24.627-1.19,34.643,34.643,0,0,0,11.849-8.877l72.221,45.7L762.751,0h97.573L979.632,75.488,1022.706,0h113.729L1012.984,216.35,857.2,117.784a38.407,38.407,0,0,0-.7-26.336A35.847,35.847,0,0,0,839.217,72.4,33.066,33.066,0,0,0,824.4,68.9a33.616,33.616,0,0,0-16.956,4.631,35.718,35.718,0,0,0-12.908,13.155,38.248,38.248,0,0,0-4.319,25.95,36.882,36.882,0,0,0,13.323,22.3,34.153,34.153,0,0,0,10.018,5.484,33.261,33.261,0,0,0,24.627-1.19,34.642,34.642,0,0,0,11.849-8.877l167.719,106.12L1152.683,0h113.73l-86.561,151.7a33.152,33.152,0,0,0-11.6-2.1,33.545,33.545,0,0,0-18.469,5.584,36.007,36.007,0,0,0-13.03,15.456,38.383,38.383,0,0,0-1.821,26.277,36.377,36.377,0,0,0,15.384,20.777,33.289,33.289,0,0,0,33.313,1.469,34.545,34.545,0,0,0,6.779-4.611,36.011,36.011,0,0,0,5.729-6.338,38.015,38.015,0,0,0,6.775-25.362,37.341,37.341,0,0,0-11.127-23.6L1282.659,0h113.73l-27.436,48.081,107.436,67.977L1542.613,0h113.73l-146.6,256.922L1353.96,158.356a38.407,38.407,0,0,0-.7-26.336,35.851,35.851,0,0,0-17.289-19.045,33.075,33.075,0,0,0-14.821-3.5A33.62,33.62,0,0,0,1304.2,114.1a35.714,35.714,0,0,0-12.907,13.154,38.249,38.249,0,0,0-4.319,25.951,36.884,36.884,0,0,0,13.322,22.3,34.166,34.166,0,0,0,10.019,5.484,33.263,33.263,0,0,0,24.627-1.19,34.647,34.647,0,0,0,11.849-8.878l167.719,106.12L1672.59,0H1725.6L1919,122.37v88.579a33.129,33.129,0,0,0-5.6-.477,33.66,33.66,0,0,0-15.405,3.77,34.527,34.527,0,0,0-6.779,4.611,36.044,36.044,0,0,0-5.729,6.339,38.012,38.012,0,0,0-6.774,25.362,37.342,37.342,0,0,0,11.126,23.6L1674.3,651.889,1919,806.714V926.475l-625.63-395.85-234.958,61.688-310.353,543.9H634.33l27.039-47.386-95.5-60.424L831.618,562.673a33.146,33.146,0,0,0,11.6,2.1,33.55,33.55,0,0,0,18.469-5.584,36.008,36.008,0,0,0,13.031-15.457,38.382,38.382,0,0,0,1.821-26.276,36.375,36.375,0,0,0-15.384-20.777,33.286,33.286,0,0,0-33.314-1.47,34.524,34.524,0,0,0-6.779,4.611,36.04,36.04,0,0,0-5.729,6.339,38.01,38.01,0,0,0-6.775,25.362,37.341,37.341,0,0,0,11.126,23.6L546.76,1033.42l95.5,60.424-24.175,42.369H533.457a38.587,38.587,0,0,0-2.366-18.789,36.435,36.435,0,0,0-11.323-15.323,34.167,34.167,0,0,0-10.019-5.485,33.264,33.264,0,0,0-24.627,1.19,34.636,34.636,0,0,0-11.849,8.877l-60.284-38.142L585.134,766.855l-72.22-45.7a38.407,38.407,0,0,0-.7-26.336,35.852,35.852,0,0,0-17.289-19.044,33.07,33.07,0,0,0-14.821-3.5,33.621,33.621,0,0,0-16.956,4.631,35.714,35.714,0,0,0-12.907,13.155,38.249,38.249,0,0,0-4.32,25.95,36.883,36.883,0,0,0,13.323,22.3,34.168,34.168,0,0,0,10.019,5.484,33.261,33.261,0,0,0,24.627-1.19,34.639,34.639,0,0,0,11.849-8.877l60.283,38.143L393.88,1073.559l72.22,45.7a38.35,38.35,0,0,0-1.7,16.958ZM709.2,954.1a33.553,33.553,0,0,0-18.469,5.585A36.006,36.006,0,0,0,677.7,975.139a38.381,38.381,0,0,0-1.821,26.276,36.378,36.378,0,0,0,15.384,20.777,33.284,33.284,0,0,0,33.313,1.47,34.536,34.536,0,0,0,6.779-4.611,36.035,36.035,0,0,0,5.729-6.339,38.012,38.012,0,0,0,6.775-25.362,37.34,37.34,0,0,0-11.127-23.6l271.45-475.724,290.569-76.287,295.986,187.276L1806.28,221.28a33.142,33.142,0,0,0,11.6,2.1,33.547,33.547,0,0,0,18.469-5.584,36,36,0,0,0,13.03-15.457,38.382,38.382,0,0,0,1.821-26.276,36.377,36.377,0,0,0-15.383-20.777,33.287,33.287,0,0,0-33.314-1.47,34.542,34.542,0,0,0-6.779,4.611,36.049,36.049,0,0,0-5.729,6.339,38.01,38.01,0,0,0-6.775,25.362,37.345,37.345,0,0,0,11.127,23.6L1585.976,578.895l-288.943-182.82L995.191,475.323,720.8,956.2A33.158,33.158,0,0,0,709.2,954.1ZM467.624,572.743l167.72,106.12L807.487,377.175l60.284,38.143a38.4,38.4,0,0,0,.7,26.336A35.848,35.848,0,0,0,885.756,460.7a33.069,33.069,0,0,0,14.821,3.5,33.62,33.62,0,0,0,16.956-4.631,35.713,35.713,0,0,0,12.907-13.153,38.249,38.249,0,0,0,4.32-25.951,36.878,36.878,0,0,0-13.323-22.3,34.152,34.152,0,0,0-10.019-5.485,33.262,33.262,0,0,0-24.626,1.19,34.639,34.639,0,0,0-11.849,8.877l-72.221-45.7L630.579,658.739,474.8,560.172a38.406,38.406,0,0,0-.7-26.336,35.852,35.852,0,0,0-17.289-19.044,33.077,33.077,0,0,0-14.821-3.5,33.623,33.623,0,0,0-16.956,4.631,35.714,35.714,0,0,0-12.907,13.154,38.248,38.248,0,0,0-4.32,25.95,36.882,36.882,0,0,0,13.322,22.3,34.167,34.167,0,0,0,10.019,5.485,33.263,33.263,0,0,0,24.627-1.19,34.641,34.641,0,0,0,11.848-8.876h0ZM334.008,351.332,597.225,517.876,755.384,240.7a33.143,33.143,0,0,0,11.6,2.1,33.544,33.544,0,0,0,18.469-5.585,36,36,0,0,0,13.03-15.456,38.384,38.384,0,0,0,1.821-26.277,36.377,36.377,0,0,0-15.384-20.777,33.287,33.287,0,0,0-33.314-1.47,34.536,34.536,0,0,0-6.779,4.611,36.058,36.058,0,0,0-5.729,6.339,38.016,38.016,0,0,0-6.775,25.363,37.341,37.341,0,0,0,11.127,23.6L592.461,497.753,341.18,338.762a38.4,38.4,0,0,0-.7-26.336A35.851,35.851,0,0,0,323.2,293.381a33.082,33.082,0,0,0-14.821-3.5,33.618,33.618,0,0,0-16.956,4.631,35.711,35.711,0,0,0-12.907,13.154,38.249,38.249,0,0,0-4.32,25.951,36.877,36.877,0,0,0,13.322,22.3,34.159,34.159,0,0,0,10.019,5.485,33.261,33.261,0,0,0,24.627-1.19,34.65,34.65,0,0,0,11.849-8.877h0Zm978.854-65,239.762,151.7,158.157-277.175a33.152,33.152,0,0,0,11.6,2.1,33.551,33.551,0,0,0,18.469-5.584,36.008,36.008,0,0,0,13.031-15.456,38.385,38.385,0,0,0,1.821-26.277,36.379,36.379,0,0,0-15.384-20.778A33.288,33.288,0,0,0,1707,93.394a34.561,34.561,0,0,0-6.779,4.611,36.053,36.053,0,0,0-5.729,6.339,38.012,38.012,0,0,0-6.774,25.362,37.341,37.341,0,0,0,11.127,23.6l-150.985,264.6L1315.081,270.624,1009.321,350.9l-114-72.131a38.4,38.4,0,0,0-.7-26.336,35.846,35.846,0,0,0-17.289-19.044,33.071,33.071,0,0,0-14.821-3.5,33.619,33.619,0,0,0-16.956,4.631,35.711,35.711,0,0,0-12.907,13.154,38.248,38.248,0,0,0-4.32,25.95,36.883,36.883,0,0,0,13.323,22.3,34.161,34.161,0,0,0,10.019,5.484,33.26,33.26,0,0,0,24.627-1.19,34.645,34.645,0,0,0,11.849-8.877L1007.1,366.607ZM519.339,1136.213h-40.8a22.9,22.9,0,0,1,2.493-16.068,21.421,21.421,0,0,1,7.773-7.911,19.977,19.977,0,0,1,20.892.384,21.542,21.542,0,0,1,8.49,10.3,23.137,23.137,0,0,1,1.157,13.289Zm-421.163,0H87.308L0,1080.972V961.211L61.94,1000.4,153.068,840.7,94.487,593.28,0,533.5V443.385c.851.066,1.718.1,2.579.1a33.206,33.206,0,0,0,13.82-3,34.637,34.637,0,0,0,11.849-8.876L187.551,532.4,262.38,848.44Zm-37.908,0H0v-38.133l60.264,38.13Zm1489.545-2.158h0a20.08,20.08,0,0,1-10.74-3.145,21.193,21.193,0,0,1-6.125-5.892,22.464,22.464,0,0,1-3.386-7.642,23.059,23.059,0,0,1-.418-8.422,22.617,22.617,0,0,1,2.781-8.229,21.424,21.424,0,0,1,7.773-7.911,19.976,19.976,0,0,1,20.892.385,21.208,21.208,0,0,1,6.124,5.892,22.467,22.467,0,0,1,3.386,7.642,23.057,23.057,0,0,1,.417,8.421,22.618,22.618,0,0,1-2.781,8.23,21.417,21.417,0,0,1-7.772,7.911A20.193,20.193,0,0,1,1549.813,1134.055Zm152.878-40.138h0a20.076,20.076,0,0,1-10.739-3.145,21.2,21.2,0,0,1-6.124-5.892,22.459,22.459,0,0,1-3.386-7.642,23.05,23.05,0,0,1-.417-8.421,22.62,22.62,0,0,1,2.781-8.23,21.418,21.418,0,0,1,7.773-7.911,19.978,19.978,0,0,1,20.892.384,21.2,21.2,0,0,1,6.124,5.892,22.462,22.462,0,0,1,3.386,7.642,23.063,23.063,0,0,1,.417,8.422,22.619,22.619,0,0,1-2.781,8.23,21.413,21.413,0,0,1-7.773,7.911A20.2,20.2,0,0,1,1702.691,1093.917Zm-248.377-20.286h0a20.078,20.078,0,0,1-10.74-3.145,21.2,21.2,0,0,1-6.124-5.892,22.463,22.463,0,0,1-3.386-7.643,23.055,23.055,0,0,1-.418-8.421,22.616,22.616,0,0,1,2.781-8.23,21.416,21.416,0,0,1,7.771-7.91,19.976,19.976,0,0,1,20.894.385,21.185,21.185,0,0,1,6.124,5.892,22.465,22.465,0,0,1,3.386,7.642,23.066,23.066,0,0,1,.417,8.422,22.622,22.622,0,0,1-2.781,8.229,21.418,21.418,0,0,1-7.773,7.91A20.2,20.2,0,0,1,1454.314,1073.631Zm401.258-19.853h0a20.076,20.076,0,0,1-10.74-3.146,21.192,21.192,0,0,1-6.125-5.892,22.459,22.459,0,0,1-3.385-7.642,23.053,23.053,0,0,1-.417-8.422,22.624,22.624,0,0,1,2.781-8.23,21.415,21.415,0,0,1,7.772-7.911,19.975,19.975,0,0,1,20.893.385,21.194,21.194,0,0,1,6.124,5.891,22.469,22.469,0,0,1,3.386,7.642,23.056,23.056,0,0,1,.417,8.421,22.619,22.619,0,0,1-2.781,8.23,21.413,21.413,0,0,1-7.772,7.911A20.19,20.19,0,0,1,1855.572,1053.778Zm-1146.4-41h0a20.077,20.077,0,0,1-10.74-3.145,21.2,21.2,0,0,1-6.124-5.892,22.464,22.464,0,0,1-3.386-7.642,23.06,23.06,0,0,1-.418-8.422,22.623,22.623,0,0,1,2.781-8.229,21.423,21.423,0,0,1,7.774-7.911,19.976,19.976,0,0,1,20.891.385,21.191,21.191,0,0,1,6.124,5.892,22.464,22.464,0,0,1,3.386,7.642,23.063,23.063,0,0,1,.417,8.422,22.619,22.619,0,0,1-2.781,8.229,21.414,21.414,0,0,1-7.772,7.911A20.2,20.2,0,0,1,709.177,1012.774Zm401.258-19.852h0a20.077,20.077,0,0,1-10.74-3.146,21.192,21.192,0,0,1-6.124-5.891,22.462,22.462,0,0,1-3.386-7.642,23.061,23.061,0,0,1-.417-8.422,22.623,22.623,0,0,1,2.781-8.23,21.418,21.418,0,0,1,7.773-7.911,19.972,19.972,0,0,1,20.891.385,21.194,21.194,0,0,1,6.125,5.891,22.463,22.463,0,0,1,3.386,7.642,23.052,23.052,0,0,1,.418,8.421,22.621,22.621,0,0,1-2.781,8.23,21.417,21.417,0,0,1-7.773,7.911A20.2,20.2,0,0,1,1110.435,992.922ZM57.174,980.279h0L0,944.1V858.248a34.678,34.678,0,0,0,6.593,4.267,33.073,33.073,0,0,0,14.821,3.5,33.622,33.622,0,0,0,16.955-4.632,35.711,35.711,0,0,0,12.907-13.153,38.245,38.245,0,0,0,4.32-25.95,36.877,36.877,0,0,0-13.323-22.3A34.152,34.152,0,0,0,32.256,794.5a33.23,33.23,0,0,0-22.056.148A34.068,34.068,0,0,0,0,800.455V700.546a35.674,35.674,0,0,0,13.161-13.3A38.25,38.25,0,0,0,17.48,661.3,36.88,36.88,0,0,0,4.158,639,34.94,34.94,0,0,0,0,636.181V550.605l82.42,52.149L138.19,838.3,57.175,980.279ZM1014.937,932.5h0a20.078,20.078,0,0,1-10.74-3.145,21.188,21.188,0,0,1-6.124-5.892,22.47,22.47,0,0,1-3.386-7.642,23.066,23.066,0,0,1-.417-8.422,22.623,22.623,0,0,1,2.781-8.229,21.418,21.418,0,0,1,7.771-7.911,19.979,19.979,0,0,1,20.894.385,21.2,21.2,0,0,1,6.124,5.892,22.456,22.456,0,0,1,3.386,7.642,23.052,23.052,0,0,1,.417,8.422,22.615,22.615,0,0,1-2.78,8.229,21.417,21.417,0,0,1-7.772,7.911A20.194,20.194,0,0,1,1014.937,932.5ZM21.421,851.355h0a20.078,20.078,0,0,1-10.74-3.146,21.192,21.192,0,0,1-6.124-5.891,22.464,22.464,0,0,1-3.386-7.642,23.06,23.06,0,0,1-.417-8.421,22.623,22.623,0,0,1,2.781-8.23,21.416,21.416,0,0,1,7.773-7.911A19.974,19.974,0,0,1,32.2,810.5a21.2,21.2,0,0,1,6.124,5.891,22.464,22.464,0,0,1,3.386,7.642,23.061,23.061,0,0,1,.417,8.421,22.619,22.619,0,0,1-2.781,8.23,21.41,21.41,0,0,1-7.773,7.91A20.194,20.194,0,0,1,21.421,851.355Zm1050.9-19.42h0a20.079,20.079,0,0,1-10.74-3.146,21.187,21.187,0,0,1-6.124-5.892,22.462,22.462,0,0,1-3.386-7.642,23.055,23.055,0,0,1-.417-8.422,22.617,22.617,0,0,1,2.78-8.23,21.415,21.415,0,0,1,7.773-7.911,19.975,19.975,0,0,1,20.892.385,21.2,21.2,0,0,1,6.124,5.892,22.458,22.458,0,0,1,3.386,7.642,23.048,23.048,0,0,1,.417,8.421,22.617,22.617,0,0,1-2.781,8.23,21.412,21.412,0,0,1-7.773,7.911A20.193,20.193,0,0,1,1072.318,831.935ZM1919,789.607v0h0L1693.413,646.872,1901.778,281.7A32.995,32.995,0,0,0,1919,283.322V394.948a38.555,38.555,0,0,0,0,26.347v29.544L1827.183,611.75l91.817,58.1V789.607Zm-789.3-58.234h0a20.077,20.077,0,0,1-10.74-3.146,21.192,21.192,0,0,1-6.124-5.891,22.463,22.463,0,0,1-3.386-7.642,23.06,23.06,0,0,1-.417-8.421,22.622,22.622,0,0,1,2.781-8.23,21.421,21.421,0,0,1,7.773-7.911,19.974,19.974,0,0,1,20.891.385,21.193,21.193,0,0,1,6.124,5.892,22.466,22.466,0,0,1,3.386,7.642,23.059,23.059,0,0,1,.418,8.422,22.622,22.622,0,0,1-2.781,8.23,21.415,21.415,0,0,1-7.773,7.911A20.2,20.2,0,0,1,1129.7,731.373Zm-649.637-.433h0a20.079,20.079,0,0,1-10.74-3.145A21.2,21.2,0,0,1,463.2,721.9a22.468,22.468,0,0,1-3.386-7.642,23.059,23.059,0,0,1-.418-8.422,22.62,22.62,0,0,1,2.78-8.229,21.421,21.421,0,0,1,7.774-7.911,19.976,19.976,0,0,1,20.891.385,21.2,21.2,0,0,1,6.125,5.892,22.464,22.464,0,0,1,3.386,7.642,23.061,23.061,0,0,1,.417,8.422,22.612,22.612,0,0,1-2.78,8.229,21.421,21.421,0,0,1-7.773,7.911A20.192,20.192,0,0,1,480.062,730.94Zm802.518-39.706h0a20.078,20.078,0,0,1-10.74-3.145,21.189,21.189,0,0,1-6.124-5.892,22.468,22.468,0,0,1-3.386-7.642,23.061,23.061,0,0,1-.417-8.422,22.621,22.621,0,0,1,2.781-8.229,21.419,21.419,0,0,1,7.773-7.912,19.976,19.976,0,0,1,20.892.385,21.2,21.2,0,0,1,6.124,5.892,22.461,22.461,0,0,1,3.386,7.642,23.055,23.055,0,0,1,.418,8.421,22.626,22.626,0,0,1-2.781,8.23,21.419,21.419,0,0,1-7.772,7.911A20.2,20.2,0,0,1,1282.58,691.234ZM0,681.618V655.11a22.7,22.7,0,0,1,4.177,11.93A22.8,22.8,0,0,1,1.229,679.7,22.438,22.438,0,0,1,0,681.616Zm1919-28.88h0l-72.707-46L1919,479.312V652.738ZM441.943,569.953a20.078,20.078,0,0,1-10.739-3.145,21.2,21.2,0,0,1-6.124-5.892,22.463,22.463,0,0,1-3.386-7.642,23.062,23.062,0,0,1-.417-8.422,22.622,22.622,0,0,1,2.781-8.229,21.418,21.418,0,0,1,7.773-7.912,19.979,19.979,0,0,1,20.892.385,21.2,21.2,0,0,1,6.124,5.892,22.466,22.466,0,0,1,3.386,7.642,23.064,23.064,0,0,1,.417,8.422,22.622,22.622,0,0,1-2.781,8.23,21.416,21.416,0,0,1-7.773,7.911A20.2,20.2,0,0,1,441.943,569.953ZM843.2,550.1h0a20.074,20.074,0,0,1-10.739-3.145,21.2,21.2,0,0,1-6.124-5.892,22.465,22.465,0,0,1-3.386-7.642,23.058,23.058,0,0,1-.417-8.421,22.615,22.615,0,0,1,2.781-8.229,21.415,21.415,0,0,1,7.773-7.91,19.978,19.978,0,0,1,20.892.384,21.2,21.2,0,0,1,6.124,5.892,22.464,22.464,0,0,1,3.386,7.642,23.066,23.066,0,0,1,.417,8.422,22.616,22.616,0,0,1-2.781,8.229,21.41,21.41,0,0,1-7.773,7.911A20.2,20.2,0,0,1,843.2,550.1Zm57.382-100.563h0a20.08,20.08,0,0,1-10.74-3.145,21.2,21.2,0,0,1-6.124-5.892,22.47,22.47,0,0,1-3.386-7.642,23.063,23.063,0,0,1-.417-8.422,22.62,22.62,0,0,1,2.781-8.229,21.42,21.42,0,0,1,7.774-7.911,19.975,19.975,0,0,1,20.891.385,21.187,21.187,0,0,1,6.124,5.892,22.465,22.465,0,0,1,3.386,7.642,23.058,23.058,0,0,1,.418,8.422,22.617,22.617,0,0,1-2.781,8.229,21.414,21.414,0,0,1-7.772,7.911A20.2,20.2,0,0,1,900.585,449.538ZM2.568,428.82h0A19.938,19.938,0,0,1,0,428.653V384.99a20.009,20.009,0,0,1,2.607-.171,20.076,20.076,0,0,1,10.739,3.146,21.2,21.2,0,0,1,6.124,5.892,22.46,22.46,0,0,1,3.386,7.642,23.054,23.054,0,0,1,.418,8.421,22.623,22.623,0,0,1-2.781,8.23,21.41,21.41,0,0,1-7.773,7.911A20.2,20.2,0,0,1,2.568,428.82Zm152.88-40.139h0a20.077,20.077,0,0,1-10.74-3.145,21.19,21.19,0,0,1-6.124-5.892A22.468,22.468,0,0,1,135.2,372a23.065,23.065,0,0,1-.417-8.422,22.624,22.624,0,0,1,2.781-8.229,21.42,21.42,0,0,1,7.773-7.911,19.977,19.977,0,0,1,20.892.385,21.2,21.2,0,0,1,6.124,5.892,22.463,22.463,0,0,1,3.386,7.642,23.063,23.063,0,0,1,.417,8.422,22.615,22.615,0,0,1-2.78,8.229,21.418,21.418,0,0,1-7.773,7.911A20.194,20.194,0,0,1,155.448,388.681Zm152.88-40.138h0a20.077,20.077,0,0,1-10.74-3.145,21.2,21.2,0,0,1-6.124-5.892,22.456,22.456,0,0,1-3.386-7.642,23.057,23.057,0,0,1-.417-8.421,22.616,22.616,0,0,1,2.781-8.23,21.419,21.419,0,0,1,7.773-7.911,19.978,19.978,0,0,1,20.892.385,21.192,21.192,0,0,1,6.124,5.892,22.467,22.467,0,0,1,3.386,7.641,23.06,23.06,0,0,1,.417,8.421,22.625,22.625,0,0,1-2.781,8.23,21.414,21.414,0,0,1-7.773,7.912A20.2,20.2,0,0,1,308.328,348.543ZM59.95,328.257h0a20.081,20.081,0,0,1-10.74-3.145,21.192,21.192,0,0,1-6.124-5.892,22.466,22.466,0,0,1-3.386-7.642,23.06,23.06,0,0,1-.417-8.421,22.616,22.616,0,0,1,2.781-8.23,21.416,21.416,0,0,1,7.774-7.911,19.975,19.975,0,0,1,20.891.385,21.194,21.194,0,0,1,6.124,5.892,22.464,22.464,0,0,1,3.386,7.642,23.06,23.06,0,0,1,.417,8.422,22.616,22.616,0,0,1-2.781,8.229A21.413,21.413,0,0,1,70.1,325.5,20.2,20.2,0,0,1,59.95,328.257ZM461.209,308.4h0a20.079,20.079,0,0,1-10.74-3.145,21.193,21.193,0,0,1-6.124-5.892,22.465,22.465,0,0,1-3.386-7.642,23.057,23.057,0,0,1-.418-8.422,22.612,22.612,0,0,1,2.781-8.23,21.421,21.421,0,0,1,7.773-7.911,19.976,19.976,0,0,1,20.892.385,21.193,21.193,0,0,1,6.124,5.892,22.465,22.465,0,0,1,3.386,7.642,23.064,23.064,0,0,1,.417,8.422,22.627,22.627,0,0,1-2.781,8.23,21.413,21.413,0,0,1-7.773,7.911A20.2,20.2,0,0,1,461.209,308.4Zm401.26-19.853h0a20.08,20.08,0,0,1-10.74-3.145,21.19,21.19,0,0,1-6.124-5.892,22.465,22.465,0,0,1-3.386-7.642,23.058,23.058,0,0,1-.417-8.422,22.614,22.614,0,0,1,2.781-8.23,21.419,21.419,0,0,1,7.773-7.911,19.975,19.975,0,0,1,20.892.385,21.193,21.193,0,0,1,6.124,5.891,22.468,22.468,0,0,1,3.386,7.642,23.063,23.063,0,0,1,.417,8.422,22.618,22.618,0,0,1-2.781,8.23,21.412,21.412,0,0,1-7.772,7.91A20.2,20.2,0,0,1,862.468,288.551Zm1050.9-19.42h0a20.085,20.085,0,0,1-10.741-3.145,21.194,21.194,0,0,1-6.124-5.892,22.472,22.472,0,0,1-3.386-7.642,23.057,23.057,0,0,1-.417-8.421,22.619,22.619,0,0,1,2.78-8.229,21.419,21.419,0,0,1,7.772-7.911,20.189,20.189,0,0,1,10.151-2.761,19.808,19.808,0,0,1,5.6.808v42.381A19.984,19.984,0,0,1,1913.366,269.132Zm-1146.4-41h0a20.079,20.079,0,0,1-10.74-3.145,21.2,21.2,0,0,1-6.124-5.892,22.458,22.458,0,0,1-3.386-7.642,23.055,23.055,0,0,1-.418-8.422,22.626,22.626,0,0,1,2.781-8.23,21.414,21.414,0,0,1,7.773-7.911,19.977,19.977,0,0,1,20.892.385,21.2,21.2,0,0,1,6.124,5.892,22.464,22.464,0,0,1,3.386,7.642,23.061,23.061,0,0,1,.417,8.421,22.616,22.616,0,0,1-2.781,8.23,21.412,21.412,0,0,1-7.773,7.911A20.193,20.193,0,0,1,766.969,228.128Zm1050.9-19.42h0a20.076,20.076,0,0,1-10.74-3.145A21.186,21.186,0,0,1,1801,199.67a22.458,22.458,0,0,1-3.386-7.642,23.063,23.063,0,0,1-.417-8.422,22.626,22.626,0,0,1,2.781-8.23,21.424,21.424,0,0,1,7.772-7.911,19.979,19.979,0,0,1,20.893.384,21.2,21.2,0,0,1,6.124,5.892,22.465,22.465,0,0,1,3.386,7.642,23.059,23.059,0,0,1,.418,8.422,22.623,22.623,0,0,1-2.781,8.229,21.416,21.416,0,0,1-7.772,7.911A20.2,20.2,0,0,1,1817.866,208.708Zm-649.637-.433h0a20.082,20.082,0,0,1-10.74-3.145,21.191,21.191,0,0,1-6.124-5.891,22.465,22.465,0,0,1-3.386-7.642,23.058,23.058,0,0,1-.417-8.422,22.623,22.623,0,0,1,2.781-8.23,21.428,21.428,0,0,1,7.773-7.911,19.976,19.976,0,0,1,20.892.385,21.2,21.2,0,0,1,6.124,5.892,22.46,22.46,0,0,1,3.386,7.642,23.057,23.057,0,0,1,.418,8.421,22.613,22.613,0,0,1-2.781,8.23,21.409,21.409,0,0,1-7.772,7.91A20.193,20.193,0,0,1,1168.228,208.275ZM0,169.328V0H96.62L93.312,5.8,115.393,0H486.551L475.994,18.5,17.353,138.917,0,169.325Zm1321.106-1.191a20.074,20.074,0,0,1-10.739-3.145,21.2,21.2,0,0,1-6.124-5.892,22.467,22.467,0,0,1-3.386-7.642,23.062,23.062,0,0,1-.417-8.422,22.623,22.623,0,0,1,2.781-8.23,21.418,21.418,0,0,1,7.773-7.911,19.977,19.977,0,0,1,20.892.385,21.2,21.2,0,0,1,6.124,5.892,22.464,22.464,0,0,1,3.386,7.642,23.057,23.057,0,0,1,.418,8.421,22.616,22.616,0,0,1-2.781,8.229,21.416,21.416,0,0,1-7.773,7.912A20.2,20.2,0,0,1,1321.106,168.137Zm401.261-19.853h0a20.079,20.079,0,0,1-10.74-3.146,21.18,21.18,0,0,1-6.124-5.891,22.466,22.466,0,0,1-3.386-7.642,23.047,23.047,0,0,1-.418-8.421,22.625,22.625,0,0,1,2.781-8.23,21.42,21.42,0,0,1,7.773-7.911,19.976,19.976,0,0,1,20.892.385,21.189,21.189,0,0,1,6.125,5.892,22.463,22.463,0,0,1,3.386,7.642,23.051,23.051,0,0,1,.417,8.421,22.617,22.617,0,0,1-2.781,8.23,21.419,21.419,0,0,1-7.773,7.911A20.2,20.2,0,0,1,1722.367,148.283ZM824.35,127.565h0a20.076,20.076,0,0,1-10.74-3.146,21.191,21.191,0,0,1-6.124-5.892,22.461,22.461,0,0,1-3.386-7.642,23.063,23.063,0,0,1-.417-8.421,22.619,22.619,0,0,1,2.781-8.23,21.415,21.415,0,0,1,7.773-7.911,19.977,19.977,0,0,1,20.892.385,21.2,21.2,0,0,1,6.124,5.892,22.468,22.468,0,0,1,3.386,7.642,23.054,23.054,0,0,1,.418,8.421,22.619,22.619,0,0,1-2.781,8.23A21.417,21.417,0,0,1,834.5,124.8,20.2,20.2,0,0,1,824.35,127.565ZM1919,105.263v0L1752.637,0H1919V105.263Zm-447.375-9.326h0l-83.562-52.871L1412.636,0h113.73l-54.741,95.936ZM974.867,55.366h0L887.365,0h119.094L974.867,55.365Z" transform="translate(1919.5 1136.877) rotate(180)" fill="#081223" stroke="#707070" stroke-width="1" opacity="0.5"/></svg>